<?xml version="1.0" encoding="utf-8"?>
<!-- Generator: Adobe Illustrator 21.1.0, SVG Export Plug-In . SVG Version: 6.00 Build 0)  -->
<svg version="1.1" id="Layer_1" xmlns="http://www.w3.org/2000/svg" xmlns:xlink="http://www.w3.org/1999/xlink" x="0px" y="0px"
	 viewBox="0 0 392 89" style="enable-background:new 0 0 392 89;" xml:space="preserve">
<style type="text/css">
	.st0{enable-background:new    ;}
</style>
<title>Group</title>
<desc>Created with Sketch.</desc>
<g id="Page-4">
	<g id="Group" transform="translate(0.000000, -5.000000)">
		<g id="Gift-Ver.-B" transform="translate(0.000000, 5.000000)">
			<g id="gift" transform="translate(10.000000, 2.000000)">
				<path id="Shape" d="M97.5,23.1H76.9c1.5-0.9,2.7-1.8,3.6-2.6c5.2-4.7,5.2-12.4,0-17.1c-5.1-4.6-14-4.6-19.1,0
					C58.7,6,51.2,16.2,52.2,23.1h-0.5c1-6.9-6.4-17.2-9.3-19.7c-5.1-4.6-14-4.6-19.1,0c-5.2,4.7-5.2,12.4,0,17.1
					c0.9,0.8,2.2,1.7,3.6,2.6H6.5c-3.6,0-6.5,2.6-6.5,5.8v14.5c0,1.6,1.5,2.9,3.2,2.9h3.2v34.8c0,3.2,2.9,5.8,6.5,5.8h78
					c3.6,0,6.5-2.6,6.5-5.8V46.3h3.2c1.8,0,3.2-1.3,3.2-2.9V28.9C104,25.7,101.1,23.1,97.5,23.1z M28,7.5c1.3-1.2,3.1-1.8,4.9-1.8
					c1.9,0,3.6,0.7,4.9,1.8c4.4,3.9,8.7,14,7.2,15.4c0,0-0.3,0.2-1.2,0.2c-4.5,0-13.1-4.2-15.9-6.7C25.3,14,25.3,10,28,7.5z
					 M55.2,81.2H13V46.3h42.2V81.2z M55.2,40.5H6.5V28.9h43.2h5.6V40.5z M66.1,7.5c2.6-2.4,7.2-2.4,9.8,0c2.7,2.5,2.7,6.4,0,8.9
					c-2.8,2.5-11.4,6.7-15.9,6.7c-0.9,0-1.2-0.2-1.2-0.2C57.4,21.5,61.7,11.5,66.1,7.5z M91,81.2H55.2V46.3H91V81.2z M97.5,40.5
					H55.2V28.9h4.8h37.4V40.5z"/>
			</g>
			
				<image style="overflow:visible;enable-background:new    ;" width="65" height="66" id="Bitmap" xlink:href="7B6CF6B2E13F5729.png"  transform="matrix(0.2923 0 0 0.2879 68 8)">
			</image>
			
				<image style="overflow:visible;enable-background:new    ;" width="65" height="66" id="Bitmap_2_" xlink:href="7B6CF6B2E13F572B.png"  transform="matrix(0.2923 0 0 0.2879 36 8)">
			</image>
			<g id="paw" transform="translate(33.000000, 37.000000)">
				<path id="Shape_1_" d="M40.7,25.5C37,21.3,32.3,19,27.5,19s-9.5,2.3-13.2,6.4C11,29.2,9,33.9,9,38.1c0,2,0.7,3.6,2,4.6
					c1.3,1,3,1.3,4.9,1.3c2,0,4.3-0.4,6.5-0.8c1.9-0.3,3.8-0.6,5.2-0.6c1.2,0,2.9,0.3,4.7,0.6c4.2,0.7,9,1.6,11.8-0.6
					c1.3-1,2-2.5,2-4.5C46,33.9,44,29.2,40.7,25.5z"/>
				<path id="Shape_2_" d="M40.9,2.9C39.6,1.1,37.6,0,35.6,0c-2,0-4,1.1-5.3,2.9c-1.2,1.7-1.9,4-1.9,6.3s0.7,4.6,1.9,6.3
					c1.4,1.9,3.3,2.9,5.3,2.9c2,0,4-1.1,5.3-2.9c1.2-1.7,1.9-4,1.9-6.3S42.2,4.6,40.9,2.9z"/>
				<path id="Shape_3_" d="M24.7,2.9C23.4,1.1,21.4,0,19.4,0s-4,1.1-5.3,2.9c-1.2,1.7-1.9,4-1.9,6.3s0.7,4.6,1.9,6.3
					c1.4,1.9,3.3,2.9,5.3,2.9s4-1.1,5.3-2.9c1.2-1.7,1.9-4,1.9-6.3C26.6,6.9,25.9,4.6,24.7,2.9z"/>
				<path id="Shape_4_" d="M54.7,17.5c-0.6-1.7-1.7-3-3.3-3.5c-1.3-0.4-2.7-0.4-4.1,0.2c-1.9,0.8-3.4,2.5-4.2,4.5
					c-0.6,1.7-0.7,3.5-0.2,5.1c0.6,1.7,1.7,3,3.3,3.5c0.6,0.2,1.1,0.3,1.7,0.3c0.8,0,1.6-0.2,2.4-0.5c1.9-0.8,3.4-2.5,4.2-4.5v0
					C55.1,20.9,55.2,19.1,54.7,17.5z"/>
				<path id="Shape_5_" d="M11.9,18.7c-0.8-2.1-2.3-3.7-4.2-4.5c-1.3-0.6-2.8-0.7-4.1-0.2c-1.6,0.6-2.8,1.8-3.3,3.5
					c-0.5,1.6-0.4,3.4,0.2,5.1v0c0.8,2.1,2.3,3.7,4.2,4.5c0.8,0.3,1.6,0.5,2.4,0.5c0.6,0,1.2-0.1,1.7-0.3c1.6-0.6,2.8-1.8,3.3-3.5
					C12.6,22.2,12.5,20.4,11.9,18.7z"/>
			</g>
			<g id="Group-6">
				<path id="Shape_6_" d="M11.4,8L7.8,4.4c-1-1-2.6-1-3.5,0S3.3,7,4.3,8l3.5,3.6c1,1,2.6,1,3.5,0C12.4,10.6,12.4,9,11.4,8z"/>
				<path id="Shape_7_" d="M9.4,14H2.5C1.1,14,0,15.1,0,16.5S1.1,19,2.5,19h6.9c1.4,0,2.5-1.1,2.5-2.5S10.7,14,9.4,14z"/>
				<path id="Shape_8_" d="M16.5,0C15.2,0,14,1.1,14,2.5v7c0,1.4,1.1,2.5,2.5,2.5c1.4,0,2.5-1.1,2.5-2.5v-7C19,1.1,17.9,0,16.5,0z"
					/>
			</g>
			
				<g id="Group-6-Copy" transform="translate(113.500000, 9.500000) scale(-1, 1) translate(-113.500000, -9.500000) translate(104.000000, 0.000000)">
				<path id="Shape_9_" d="M11.4,8L7.8,4.4c-1-1-2.6-1-3.5,0S3.3,7,4.3,8l3.5,3.6c1,1,2.6,1,3.5,0C12.4,10.6,12.4,9,11.4,8z"/>
				<path id="Shape_10_" d="M9.4,14H2.5C1.1,14,0,15.1,0,16.5S1.1,19,2.5,19h6.9c1.4,0,2.5-1.1,2.5-2.5S10.7,14,9.4,14z"/>
				<path id="Shape_11_" d="M16.5,0C15.2,0,14,1.1,14,2.5v7c0,1.4,1.1,2.5,2.5,2.5c1.4,0,2.5-1.1,2.5-2.5v-7C19,1.1,17.9,0,16.5,0z"
					/>
			</g>
		</g>
		<g class="st0">
			<path d="M156.2,23.6c-1.4,0-3.1,0.2-4.7,0.2c-1,0-4.9,0-4.9-2c0-2,2.7-1.9,4.3-2c7.1,0,11.9-0.1,15.1-0.1c4.8,0,6,0.3,6,1.5
				c0,0.8-0.7,2.3-1.8,2.3l-9.2,0.2l1.4,60.5c-0.6,0.8-1.5,1.1-2.5,1.1c-1.3,0-2.8-0.6-2.8-2.1L156.2,23.6z"/>
			<path d="M207.4,50.2c0,0.4-0.3,4.2-0.3,4.7v25.2c0,2.1,0,5.8-3.5,5.8c-0.4,0-0.9,0-1.5-0.2c0-1.7,0.1-3.5,0.1-5.3
				c0-2,0.1-3.5,0.1-14.7c0-8.4-0.1-22.3-0.2-46.1c0-1.6,5.4-1.7,7.7-1.7h1.3c7.9,0,14.6,5.7,14.6,14.1c0,8.3-5.9,11.5-10.6,15.4
				c11.8,5.8,11.6,21.4,11.6,33.6v3.2c0,1.3-1.5,2-2.7,2c-0.6,0-1.9-0.5-1.9-1.5v-1.6c0-22.4-3.5-29-9.3-32.1
				c-0.4-0.2-0.4-0.3-0.5-0.3c-1.2-0.7-3-1.7-4.2-1.7C207.3,49.1,207.5,49.5,207.4,50.2z M207.7,44.3h0.3c5.8,0,12.8-6.2,12.8-12.3
				c0-6.1-4.6-9.9-10.2-9.9h-2.3c-1,0.3-0.8,0.6-0.8,1.7c0,0.6-0.3,4.8-0.3,5.3v15C207.2,44.3,207.4,44.3,207.7,44.3z"/>
			<path d="M256.5,83.6l0.2-61.3c0-1.7,1.6-1.9,3-1.9h17.6c1.2,0,2,1.4,2,2.5c0,0.8-0.3,1.4-1,1.8l-16.7-0.2l0.1,16.8h9.3
				c1.4,0,2.6,1.3,2.6,2.6c0,0.8-0.4,1.4-1.4,1.9l-10.9,0.3l-0.3,33.1l16,0.3c1.4,0,2.4,1.2,2.4,2.7c0,1.4-0.9,1.6-2.3,1.6
				L256.5,83.6z"/>
			<path d="M319.3,19c0.6-1,1.4-1.4,2.2-1.4c0.7,0,1.4,0.3,2,0.9c1.4,1.1,2.6,2.5,12.5,58.6l1,5.8c0,1.4-1,2-2.4,2
				c-1.2-0.1-2-0.4-2.3-1.8l-4.5-23.1l-10.6,0.8l-3.5,20c-0.2,2.7-0.9,3.2-3,3.2c-0.8-0.1-1.7-0.6-1.7-1.6L319.3,19z M317.8,56
				l9.1-0.7c0,0,0.3,0.9-4.8-30.3L317.8,56z"/>
			<path d="M376.4,23.6c-1.4,0-3.1,0.2-4.7,0.2c-1,0-4.9,0-4.9-2c0-2,2.7-1.9,4.2-2c7.1,0,11.9-0.1,15.1-0.1c4.8,0,6,0.3,6,1.5
				c0,0.8-0.7,2.3-1.8,2.3l-9.2,0.2l1.4,60.5c-0.6,0.8-1.5,1.1-2.5,1.1c-1.3,0-2.8-0.6-2.8-2.1L376.4,23.6z"/>
		</g>
	</g>
</g>
</svg>
